<?xml version="1.0" standalone="no"?>
<!DOCTYPE svg PUBLIC "-//W3C//DTD SVG 20010904//EN"
 "http://www.w3.org/TR/2001/REC-SVG-20010904/DTD/svg10.dtd">
<svg version="1.0" xmlns="http://www.w3.org/2000/svg"
 width="512.000000pt" height="512.000000pt" viewBox="0 0 512.000000 512.000000"
 preserveAspectRatio="xMidYMid meet">
<metadata>
Created by potrace 1.11, written by Peter Selinger 2001-2013
</metadata>
<g transform="translate(0.000000,512.000000) scale(0.100000,-0.100000)"
fill="#000000" stroke="none">
<path d="M268 4630 c-61 -11 -141 -55 -180 -99 -17 -19 -43 -60 -57 -91 l-26
-55 0 -1825 0 -1825 29 -63 c34 -73 86 -124 165 -161 l56 -26 2305 0 2305 0
56 26 c79 37 131 88 165 161 l29 63 0 1825 0 1825 -33 67 c-37 76 -82 120
-162 157 l-55 26 -2275 1 c-1251 1 -2296 -2 -2322 -6z m4453 -333 c18 -12 44
-38 56 -56 l23 -34 0 -1647 0 -1647 -23 -34 c-12 -18 -38 -44 -56 -56 l-34
-23 -2127 0 -2127 0 -33 23 c-18 12 -43 35 -54 50 l-21 28 -3 1653 -2 1653 23
34 c12 18 38 44 56 56 l34 23 2127 0 2127 0 34 -23z"/>
<path d="M712 3980 c-18 -11 -41 -34 -52 -52 -20 -32 -20 -53 -20 -1368 0
-1315 0 -1336 20 -1368 11 -18 34 -41 52 -52 32 -19 52 -20 861 -20 l827 0 -2
331 -3 331 -70 22 c-464 147 -687 662 -476 1101 93 195 267 345 476 411 l70
22 3 331 2 331 -827 0 c-809 0 -829 -1 -861 -20z"/>
<path d="M2722 3669 l3 -331 70 -22 c463 -147 686 -663 476 -1101 -93 -195
-267 -345 -476 -411 l-70 -22 -3 -331 -2 -331 827 0 c809 0 829 1 861 20 18
11 41 34 52 52 20 32 20 53 20 1368 0 1315 0 1336 -20 1368 -11 18 -34 41 -52
52 -32 19 -52 20 -861 20 l-827 0 2 -331z"/>
<path d="M2330 2985 c-161 -87 -252 -241 -252 -425 0 -186 97 -347 261 -429
l61 -31 0 460 c0 253 -1 460 -2 460 -2 0 -32 -16 -68 -35z"/>
<path d="M2720 2560 l0 -460 61 31 c164 82 261 243 261 429 0 186 -97 347
-261 429 l-61 31 0 -460z"/>
</g>
</svg>
