<?xml version="1.0" standalone="no"?>
<!DOCTYPE svg PUBLIC "-//W3C//DTD SVG 20010904//EN"
 "http://www.w3.org/TR/2001/REC-SVG-20010904/DTD/svg10.dtd">
<svg version="1.0" xmlns="http://www.w3.org/2000/svg"
 width="512.000000pt" height="512.000000pt" viewBox="0 0 512.000000 512.000000"
 preserveAspectRatio="xMidYMid meet">
<metadata>
Created by potrace 1.11, written by Peter Selinger 2001-2013
</metadata>
<g transform="translate(0.000000,512.000000) scale(0.100000,-0.100000)"
fill="#000000" stroke="none">
<path d="M220 4623 c-90 -31 -157 -97 -196 -191 l-23 -57 0 -1805 c-1 -1322 3
-1817 11 -1850 23 -91 87 -167 177 -209 l56 -26 2296 -3 c2088 -2 2300 -1
2350 14 106 32 182 108 213 213 14 48 16 240 16 1848 0 1338 -3 1806 -12 1841
-27 111 -119 203 -230 230 -35 9 -618 12 -2330 11 -2037 -1 -2288 -2 -2328
-16z m2178 -949 l-3 -326 -70 -22 c-265 -85 -451 -275 -537 -546 -20 -64 -23
-96 -23 -220 0 -124 3 -156 23 -220 86 -271 272 -461 537 -546 l70 -22 3 -326
2 -326 -822 2 -823 3 -35 22 c-19 12 -44 37 -55 55 -20 32 -20 53 -23 1336 -1
879 1 1316 8 1342 13 47 60 96 103 109 18 5 380 10 840 10 l807 1 -2 -326z
m2000 301 c18 -11 43 -36 55 -55 l22 -35 0 -1325 c0 -1307 0 -1325 -20 -1358
-11 -18 -36 -43 -55 -55 l-35 -22 -823 -3 -822 -2 2 326 3 326 70 22 c265 85
451 275 537 546 20 64 23 96 23 220 0 124 -3 156 -23 220 -86 271 -272 461
-537 546 l-70 22 -3 326 -2 326 822 -2 c803 -3 824 -3 856 -23z m-1998 -1416
l0 -450 -62 33 c-130 68 -223 198 -248 346 -32 193 69 394 245 489 33 18 61
33 63 33 1 0 2 -203 2 -451z m500 331 c67 -67 113 -159 130 -257 32 -195 -70
-397 -248 -491 l-62 -33 0 451 0 451 62 -33 c35 -18 88 -58 118 -88z"/>
</g>
</svg>
